<svg width="26" height="27" viewBox="0 0 26 27" fill="none" xmlns="http://www.w3.org/2000/svg">
<path d="M25 4.16667L13 16.1667L7.66667 10.8333M24.92 12.1667C24.9736 12.6091 25.0003 13.0543 25 13.5C25 15.8734 24.2962 18.1934 22.9776 20.1668C21.6591 22.1402 19.7849 23.6783 17.5922 24.5866C15.3995 25.4948 12.9867 25.7324 10.6589 25.2694C8.33115 24.8064 6.19295 23.6635 4.51472 21.9853C2.83649 20.307 1.6936 18.1689 1.23058 15.8411C0.767559 13.5133 1.0052 11.1005 1.91345 8.9078C2.8217 6.71508 4.35977 4.84094 6.33316 3.52236C8.30655 2.20379 10.6266 1.5 13 1.5C14.8581 1.51734 16.6857 1.97424 18.3333 2.83333" stroke="#EF174B" stroke-width="2" stroke-linecap="round" stroke-linejoin="round"/>
</svg>
