<svg width="40" height="44" viewBox="0 0 40 44" fill="none" xmlns="http://www.w3.org/2000/svg">
<path d="M15.6199 36.5473C15.2165 36.5581 14.8625 36.2573 14.8059 35.8455C14.7457 35.4158 15.0324 35.0183 15.4501 34.9359C14.9899 32.2968 13.7334 30.8429 12.4061 29.3067C11.3726 28.1106 10.3002 26.8681 9.45426 25.0382C8.6225 23.237 8.16591 21.3749 8.18007 19.4412C8.19776 17.5075 8.68267 15.5165 9.73742 13.4574C9.7445 13.4431 9.75157 13.4324 9.75865 13.418C11.1426 11.0475 13.0786 9.46468 15.2341 8.57661C17.0428 7.82819 19.0072 7.57395 20.9326 7.75299C22.851 7.93204 24.7304 8.5408 26.3727 9.52198C28.461 10.7717 30.1776 12.6267 31.1227 14.9686C31.6323 16.2362 31.9792 17.6507 32.0217 19.2013C32.0641 20.7446 31.8022 22.4098 31.0979 24.1716C30.1564 26.5315 28.9105 27.9961 27.746 29.3676C26.6736 30.6316 25.6755 31.8062 25.1198 33.6074C25.4348 33.6826 25.6825 33.944 25.7321 34.2878C25.7923 34.7318 25.4843 35.1436 25.0455 35.2045L24.7729 35.2439C24.7234 35.6342 24.6915 36.0532 24.6773 36.5008L24.7658 36.4865C25.2047 36.4256 25.6118 36.7371 25.6719 37.1812C25.7321 37.6252 25.4242 38.037 24.9853 38.0979L24.7092 38.1373C24.7127 38.191 24.7163 38.2447 24.7198 38.2984C24.7446 38.6135 24.7481 38.9179 24.7304 39.208L24.7765 39.2008C25.2189 39.1471 25.6188 39.4658 25.6755 39.9098C25.7286 40.3575 25.4136 40.7621 24.9747 40.8194L24.38 40.8946C23.9553 42.0083 23.1979 42.857 22.3024 43.3798C21.6865 43.7415 21.0034 43.9491 20.3168 43.9921C19.6195 44.0351 18.9152 43.9026 18.271 43.5875C17.5348 43.2222 16.8764 42.617 16.3986 41.7469C16.1686 41.6287 15.9987 41.3995 15.9633 41.1202C15.9491 41.0092 15.9597 40.9018 15.988 40.8015C15.85 40.3861 15.7474 39.9313 15.6801 39.43L15.6553 39.4336C15.2165 39.4945 14.8094 39.1829 14.7492 38.7389C14.6891 38.2948 14.997 37.883 15.4359 37.8222L15.627 37.7935C15.6412 37.3566 15.6376 36.9412 15.6199 36.5473ZM0.77204 21.0777C0.357927 21.0884 0.0146024 20.7626 0.000444728 20.3436C-0.013713 19.9246 0.311915 19.5773 0.726028 19.5629L3.80533 19.4555C4.21945 19.4412 4.56277 19.7706 4.57693 20.1896C4.59109 20.6086 4.26546 20.9559 3.85134 20.9702L0.77204 21.0777ZM39.1749 17.9945C39.5854 17.9515 39.9535 18.2559 39.996 18.6713C40.0385 19.0867 39.7376 19.4591 39.327 19.5021L36.2619 19.8279C35.8513 19.8709 35.4832 19.5665 35.4408 19.1511C35.3983 18.7357 35.6991 18.3633 36.1097 18.3204L39.1749 17.9945ZM33.5932 5.29289C33.8232 4.94554 34.2869 4.85243 34.6302 5.08519C34.9735 5.31795 35.0656 5.78706 34.8355 6.13441L33.1224 8.72701C32.8924 9.07436 32.4287 9.16747 32.0854 8.9347C31.7421 8.70194 31.65 8.23284 31.8801 7.88549L33.5932 5.29289ZM20.3982 0.737929C20.4088 0.318959 20.7521 -0.0104874 21.1627 0.000255431C21.5768 0.0109983 21.9024 0.35835 21.8918 0.773739L21.8139 3.88916C21.8033 4.30813 21.46 4.63757 21.0494 4.62683C20.6353 4.61609 20.3097 4.26874 20.3203 3.85335L20.3982 0.737929ZM4.91317 5.56146C4.60878 5.27498 4.59462 4.79514 4.87424 4.49076C5.15739 4.1828 5.63168 4.16847 5.93253 4.45137L8.18715 6.57844C8.49154 6.86492 8.50569 7.34477 8.22608 7.64915C7.94292 7.95711 7.46864 7.97143 7.16779 7.68854L4.91317 5.56146ZM16.9472 34.7175L23.4916 33.7757C24.0544 31.3765 25.2791 29.9333 26.6063 28.3756C27.6965 27.0937 28.8574 25.7257 29.7069 23.5987C30.3298 22.0409 30.5599 20.5799 30.5245 19.2335C30.4891 17.8906 30.1847 16.6516 29.7317 15.5308C28.9176 13.5147 27.4275 11.9105 25.6082 10.8219C24.1535 9.95169 22.4935 9.41097 20.7981 9.25699C19.1098 9.09943 17.3861 9.32503 15.7969 9.98034C13.9352 10.7502 12.261 12.1182 11.0576 14.1772C10.1232 16.0106 9.6914 17.7653 9.67725 19.4519C9.66309 21.1493 10.0701 22.7929 10.8099 24.3936C11.5638 26.0265 12.569 27.1868 13.5317 28.304C15.0324 30.0444 16.4517 31.688 16.9472 34.7175ZM23.2262 35.4587L17.1136 36.3361C17.1313 36.73 17.1384 37.1418 17.1313 37.5787L23.166 36.7121C23.1731 36.2716 23.1908 35.8526 23.2262 35.4587ZM17.1631 39.2187C17.2056 39.5482 17.2693 39.849 17.3507 40.1283L23.2085 39.3978C23.2474 39.0898 23.2545 38.7639 23.2262 38.4166V38.4094L23.2226 38.3486L17.1631 39.2187ZM18.1825 41.6681C18.409 41.908 18.6603 42.0942 18.9258 42.2231C19.3328 42.4237 19.7823 42.506 20.2247 42.481C20.6813 42.4523 21.1344 42.3127 21.5485 42.0692C21.9378 41.84 22.2882 41.5213 22.5678 41.1202L18.1825 41.6681Z" fill="white"/>
</svg>
