<svg width="26" height="27" viewBox="0 0 26 27" fill="none" xmlns="http://www.w3.org/2000/svg">
<path d="M16.3333 10.0488L16.1417 9.88915C15.6624 9.48978 15.0584 9.27107 14.4345 9.27107H11.3333C10.0447 9.27107 9 10.3157 9 11.6044C9 12.8931 10.0447 13.9377 11.3333 13.9377H14.6667C15.9553 13.9377 17 14.9824 17 16.2711C17 17.5597 15.9553 18.6044 14.6667 18.6044H10.8827C10.1884 18.6044 9.52152 18.3336 9.02376 17.8497L9 17.8267M13 8.60441V7.27107M13 20.6044V19.2711M25 13.9377C25 20.5652 19.6274 25.9377 13 25.9377C6.37258 25.9377 1 20.5652 1 13.9377C1 7.31033 6.37258 1.93774 13 1.93774C19.6274 1.93774 25 7.31033 25 13.9377Z" stroke="#5B5D6F" stroke-width="2" stroke-linecap="round" stroke-linejoin="round"/>
</svg>
