<svg width="38" height="37" viewBox="0 0 38 37" fill="none" xmlns="http://www.w3.org/2000/svg">
<path d="M37.2969 8.28683L23.7254 0.671381C23.5251 0.558952 23.3001 0.5 23.0714 0.5C22.8428 0.5 22.6178 0.558952 22.4174 0.671381L8.84599 8.28683C8.63321 8.40636 8.45577 8.58196 8.33219 8.79531C8.20861 9.00866 8.14341 9.25194 8.14341 9.49977C8.14341 9.74759 8.20861 9.99087 8.33219 10.2042C8.45577 10.4176 8.63321 10.5932 8.84599 10.7127L21.7143 17.9339V32.7734L17.5937 30.4621L16.2857 32.8878L22.4174 36.3283C22.6177 36.4409 22.8427 36.5 23.0714 36.5C23.3001 36.5 23.5251 36.4409 23.7254 36.3283L37.2969 28.7129C37.5097 28.5934 37.6873 28.4178 37.811 28.2045C37.9347 27.9911 37.9999 27.7478 38 27.4999V9.49977C37.9999 9.25189 37.9347 9.00857 37.811 8.79521C37.6873 8.58185 37.5097 8.40628 37.2969 8.28683ZM23.0714 3.46501L33.8265 9.49977L23.0714 15.5345L12.3163 9.49977L23.0714 3.46501ZM35.2857 26.6812L24.4286 32.7736V17.9339L35.2857 11.8416V26.6812Z" fill="#EF174B"/>
<path d="M0 18.4998H10.8571V15.7306H0V18.4998Z" fill="#EF174B"/>
<path d="M2.71429 29.5769H13.5714V26.8076H2.71429V29.5769Z" fill="#EF174B"/>
<path d="M5.42857 24.0384H16.2857V21.2691H5.42857V24.0384Z" fill="#EF174B"/>
</svg>
