<svg width="46" height="46" viewBox="0 0 46 46" fill="none" xmlns="http://www.w3.org/2000/svg">
<path d="M3.09204 12.7312H42.908M15.692 2.23123V12.4372M30.308 2.23123V11.4922M44 29.3V16.7C44 6.2 39.8 2 29.3 2H16.7C6.2 2 2 6.2 2 16.7V29.3C2 39.8 6.2 44 16.7 44H29.3C39.8 44 44 39.8 44 29.3ZM18.275 25.6252C18.275 22.3912 20.564 21.0682 23.357 22.6852L27.725 25.2052C30.518 26.8222 30.518 29.4682 27.725 31.0852L23.357 33.6052C20.564 35.2222 18.275 33.8992 18.275 30.6652V25.6252Z" stroke="white" stroke-width="3" stroke-miterlimit="10" stroke-linecap="round" stroke-linejoin="round"/>
</svg>
