<svg width="25" height="25" viewBox="0 0 25 25" fill="none" xmlns="http://www.w3.org/2000/svg">
<g clip-path="url(#clip0_446_4835)">
<path d="M21.0908 4.31396V18.531C21.0908 18.6366 21.0767 18.7353 21.052 18.8338C21.0485 18.8338 21.0485 18.8374 21.0485 18.8409C20.9992 19.0275 20.9041 19.2001 20.7703 19.3409C20.5625 19.5769 20.2596 19.7319 19.9215 19.7424H19.918C19.9039 19.7459 19.8898 19.7459 19.8757 19.7459H1.2814C1.0877 19.7459 0.908105 19.7001 0.746094 19.6191C0.506641 19.4995 0.312939 19.3058 0.193164 19.0663C0.136816 18.9536 0.0980957 18.8303 0.0804687 18.7C0.0699219 18.6437 0.0664062 18.5873 0.0664062 18.531V4.31396C0.0664062 3.64487 0.615771 3.09546 1.2814 3.09546H19.8758C20.5414 3.09546 21.0908 3.64487 21.0908 4.31396Z" fill="#484A56"/>
<path d="M21.0908 4.31396V18.531C21.0908 18.6366 21.0767 18.7353 21.052 18.8338C21.0485 18.8338 21.0485 18.8374 21.0485 18.8409C20.9992 19.0275 20.9041 19.2001 20.7703 19.3409C20.5625 19.5769 20.2596 19.7319 19.9215 19.7424H19.918C19.9039 19.7459 19.8898 19.7459 19.8757 19.7459H1.2814C1.0877 19.7459 0.908105 19.7001 0.746094 19.6191C0.506641 19.4995 0.312939 19.3058 0.193164 19.0663C0.136816 18.9536 0.0980957 18.8303 0.0804687 18.7C0.0699219 18.6437 0.0664062 18.5873 0.0664062 18.531V4.31396C0.0664062 3.64487 0.615771 3.09546 1.2814 3.09546H19.8758C20.5414 3.09546 21.0908 3.64487 21.0908 4.31396Z" fill="#484A56"/>
<path d="M10.5715 6.92363H1.63354C1.46802 6.92363 1.31309 6.90249 1.16162 6.86372C0.53125 6.71231 0.0664062 6.25098 0.0664062 5.70859V1.21504C0.0664063 0.54585 0.774268 0 1.63354 0H6.48994L8.31416 3.09556L8.96216 4.19077L9.5749 5.23325L10.5715 6.92363Z" fill="#5B5D6F"/>
<path d="M1.28169 18.6515C1.21689 18.6515 1.16016 18.5948 1.16016 18.53V4.31245C1.16016 4.24766 1.21689 4.19092 1.28169 4.19092H19.8738C19.9386 4.19092 19.9954 4.24766 19.9954 4.31245V18.53C19.9954 18.5948 19.9386 18.6515 19.8738 18.6515H1.28169Z" fill="white"/>
<path d="M24.933 6.2897C24.9366 6.29321 24.933 6.29321 24.933 6.29673L24.8344 6.6207L24.3308 8.25127L23.792 9.99448L23.2884 11.6214L22.7495 13.3647L22.2495 14.9952L21.0873 18.7493C21.0767 18.7775 21.0627 18.8056 21.0521 18.8338C21.0486 18.8338 21.0486 18.8373 21.0486 18.8408C21.045 18.8443 21.0415 18.8479 21.0415 18.8479C21.0415 18.8514 21.038 18.8584 21.0345 18.862C20.8373 19.2599 20.4006 19.5979 19.9357 19.7389C19.9287 19.7389 19.9252 19.7424 19.9217 19.7424H19.9181C19.7632 19.7881 19.6117 19.8128 19.4603 19.8128H0.869462C0.256718 19.8128 -0.0989949 19.4114 0.0242961 18.8972C0.0313274 18.8479 0.0489543 18.7986 0.0665324 18.7493L0.0805949 18.7L1.16175 15.2029L3.71849 6.92358L3.91219 6.29673C4.13758 5.71206 4.8701 5.23315 5.53919 5.23315H24.1301C24.7957 5.2332 25.1584 5.70854 24.933 6.2897Z" fill="#5B5D6F"/>
<path opacity="0.5" d="M22.7517 13.3655L22.2486 14.995H14.7109V13.3655H22.7517Z" fill="#484A56"/>
<path opacity="0.5" d="M23.7932 9.99341L23.2901 11.6229H15.8594V9.99341H23.7932Z" fill="#484A56"/>
<path opacity="0.06" d="M24.9313 6.28975C24.9348 6.29326 24.9313 6.29326 24.9313 6.29678L24.8327 6.62075L24.3291 8.25132L23.7902 9.99453L23.2866 11.6215L22.7478 13.3648L22.2478 14.9953L21.0856 18.7493C21.075 18.7775 21.0609 18.8056 21.0503 18.8338C21.0468 18.8338 21.0468 18.8374 21.0468 18.8409C21.0433 18.8444 21.0398 18.8479 21.0398 18.8479C21.0398 18.8514 21.0363 18.8585 21.0328 18.862C20.9834 19.0416 20.8919 19.2071 20.7687 19.3409C20.5609 19.5734 20.265 19.7213 19.934 19.7389C19.927 19.7389 19.9235 19.7424 19.92 19.7424H19.9165C19.7615 19.7882 19.6101 19.8128 19.4586 19.8128H2.58984L2.65674 19.7459L3.75195 18.6507L17.1695 5.23315L18.2119 4.19067L19.3072 3.09546H19.8742C20.5398 3.09546 21.0892 3.64487 21.0892 4.31396V5.23315H24.1283C24.7939 5.23325 25.1567 5.70859 24.9313 6.28975Z" fill="#040000"/>
</g>
<defs>
<clipPath id="clip0_446_4835">
<rect width="25" height="25" fill="white"/>
</clipPath>
</defs>
</svg>
