<svg width="23" height="25" viewBox="0 0 23 25" fill="none" xmlns="http://www.w3.org/2000/svg">
<path d="M0 8.1896V21.1207C0 21.8534 0.515523 22.4138 1.18967 22.4138H21.8103C22.4845 22.4138 23 21.8534 23 21.1207V8.1896C23 7.45684 22.4845 6.89648 21.8103 6.89648H1.18967C0.515523 6.89648 0 7.49995 0 8.1896Z" fill="#5B5D6F"/>
<path d="M21.019 6.89653C21.019 5.94824 20.3052 5.17241 19.4328 5.17241H13.0879L11.1052 2.58618H2.38107C1.70693 2.58618 1.19141 3.18965 1.19141 3.8793V6.89653H21.019Z" fill="#464756"/>
<path d="M7.13956 9.91387H2.38095C2.14299 9.91387 1.98438 9.74145 1.98438 9.48281C1.98438 9.22417 2.14299 9.05176 2.38095 9.05176H7.13956C7.37751 9.05176 7.53613 9.22417 7.53613 9.48281C7.53613 9.74145 7.37747 9.91387 7.13956 9.91387Z" fill="white"/>
<path d="M7.13956 11.638H2.38095C2.14299 11.638 1.98438 11.4656 1.98438 11.2069C1.98438 10.9483 2.14299 10.7759 2.38095 10.7759H7.13956C7.37751 10.7759 7.53613 10.9483 7.53613 11.2069C7.53613 11.4656 7.37747 11.638 7.13956 11.638Z" fill="white"/>
</svg>
