<svg width="22" height="56" viewBox="0 0 22 56" fill="none" xmlns="http://www.w3.org/2000/svg">
<path d="M21.5423 38.5246C19.8779 30.7786 18.2136 23.0326 16.5492 15.2854C16.4749 14.9458 16.2825 14.7535 16.0524 14.6605C16.0451 14.6567 16.0329 14.6567 16.0256 14.6528C15.9416 14.6231 15.8564 14.5986 15.7651 14.5973C15.7285 14.5934 15.7005 14.5753 15.6628 14.5753C12.7127 14.5753 9.76135 14.5753 6.81123 14.5753C6.41309 14.5753 6.02835 14.8697 5.93094 15.2867C4.12654 23.0133 2.32335 30.7412 0.518945 38.4678C0.370405 39.1029 -0.280984 40.6999 0.13907 41.3351C0.948739 42.5576 1.75841 43.7802 2.56808 45.0015C4.87533 48.4833 7.18258 51.9677 9.48983 55.4508C9.51175 55.4831 9.53488 55.5179 9.5568 55.5515C10.0584 56.3093 11.2577 56.0808 11.2589 55.0622C11.2626 51.0124 11.2553 46.9638 11.181 42.9165C11.1652 42.0335 11.1494 41.1479 11.0994 40.2661C11.0836 39.9989 11.0605 39.7317 11.0179 39.467C10.9119 38.8176 10.2861 38.531 10.6526 37.7848C10.9996 37.0735 11.9225 37.1845 12.2938 37.7848C12.7236 38.4755 11.9822 39.0255 11.903 39.6942C11.8348 40.2468 11.8665 40.8213 11.8653 41.3764C11.8494 45.9233 11.9408 50.474 12.0175 55.0209C12.0357 55.9892 13.2435 56.3364 13.7184 55.5102C15.6567 52.1433 17.595 48.7725 19.5309 45.4043C20.3077 44.0539 21.0845 42.7035 21.8613 41.3518C22.2583 40.6612 21.6921 39.223 21.5423 38.5246ZM13.8036 51.6437C13.7586 48.7492 13.7111 45.8548 13.6952 42.9604C13.6904 42.0735 13.6867 41.1866 13.7038 40.301C13.7062 40.1951 13.7135 40.0893 13.7184 39.9834C13.8182 39.8349 13.9156 39.6891 13.9935 39.5212C14.2346 38.9945 14.2991 38.3942 14.2115 37.8197C13.9217 35.9284 11.8884 34.7549 10.2484 35.656C9.50079 36.0652 9.00038 36.7546 8.77757 37.6118C8.6546 38.0856 8.70817 38.5801 8.79583 39.0513C8.83966 39.2888 8.96385 39.5212 9.06126 39.7368C9.09048 39.8014 9.21223 40.0544 9.26946 40.1254C9.28163 40.3023 9.29137 40.4753 9.2999 40.6534C9.3279 41.2744 9.34129 41.8954 9.35468 42.515C9.39121 44.2424 9.40582 45.971 9.418 47.6984C9.42774 49.1262 9.42774 50.5579 9.43139 51.9858C6.92324 48.1993 4.4151 44.4128 1.90695 40.6263C3.67605 33.0495 5.44514 25.47 7.21424 17.8932C7.3226 17.4323 7.42974 16.9714 7.53689 16.5105C10.0049 16.5105 12.474 16.5105 14.942 16.5105C16.5613 24.0499 18.1807 31.5906 19.8025 39.1301C19.9096 39.6374 20.0204 40.1435 20.1288 40.6508C18.02 44.3147 15.9112 47.9785 13.8036 51.6437ZM9.25728 39.9473C9.25728 39.9498 9.25728 39.9524 9.25728 39.955C9.25485 39.946 9.25485 39.9434 9.25119 39.933C9.25485 39.9408 9.25606 39.9408 9.25728 39.9473Z" fill="#24242D"/>
<path d="M4.25194 9.62695C3.91955 9.62695 3.64317 9.92 3.64317 10.2724C3.64317 11.1503 3.64317 12.0282 3.64317 12.9074C3.64317 13.2598 3.91955 13.5529 4.25194 13.5529C8.85184 13.5529 13.4517 13.5529 18.0504 13.5529C18.2172 13.5529 18.3402 13.487 18.4376 13.3941C18.451 13.3825 18.4644 13.3734 18.4778 13.3618C18.4899 13.3476 18.4997 13.3321 18.5094 13.3166C18.5959 13.2146 18.658 13.0842 18.658 12.9074C18.658 12.0295 18.658 11.1516 18.658 10.2724C18.658 9.92 18.3816 9.62695 18.0492 9.62695C13.4517 9.62695 8.85062 9.62695 4.25194 9.62695ZM17.4416 12.2619C13.2472 12.2619 9.05395 12.2619 4.86072 12.2619C4.86072 11.8139 4.86072 11.3659 4.86072 10.9179C9.05517 10.9179 13.2496 10.9179 17.4416 10.9179C17.4416 11.3659 17.4416 11.8139 17.4416 12.2619Z" fill="#24242D"/>
<path d="M3.08554 8.04935C8.37821 8.04935 13.6697 8.04935 18.9636 8.04935C19.2144 8.04935 19.4007 7.94995 19.5443 7.81181C19.5663 7.79503 19.587 7.78212 19.6064 7.76275C19.6259 7.7421 19.6369 7.71886 19.6539 7.69691C19.783 7.54457 19.8779 7.34705 19.8779 7.08111C19.8779 5.04392 19.8779 3.00544 19.8779 0.968246C19.8779 0.440229 19.4628 0 18.9648 0C13.6709 0 8.37943 0 3.08675 0C2.58878 0 2.17359 0.440229 2.17359 0.968246C2.17359 3.00544 2.17359 5.04392 2.17359 7.08111C2.17238 7.60912 2.58756 8.04935 3.08554 8.04935ZM3.9987 1.93649C8.6826 1.93649 13.3653 1.93649 18.0504 1.93649C18.0504 3.32818 18.0504 4.72117 18.0504 6.11286C13.3653 6.11286 8.6826 6.11286 3.9987 6.11286C3.9987 4.72117 3.9987 3.32818 3.9987 1.93649Z" fill="#24242D"/>
</svg>
