<svg width="52" height="52" viewBox="0 0 52 52" fill="none" xmlns="http://www.w3.org/2000/svg">
<circle cx="26" cy="26" r="25.5" stroke="#EF174B"/>
<path d="M33.8468 19.5953V19.5961C33.8468 20.3915 33.2018 21.0357 32.4071 21.0357C31.6125 21.0357 30.9675 20.3907 30.9675 19.5961C30.9675 18.8006 31.6125 18.1564 32.4071 18.1564C33.2018 18.1572 33.846 18.8006 33.8468 19.5953ZM26.0004 30.0008C23.7909 30.0008 22 28.2099 22 26.0004C22 23.7909 23.7909 22 26.0004 22C28.2099 22 30.0008 23.7909 30.0008 26.0004C30.0008 28.2091 28.2107 30 26.002 30H26.0012L26.0004 30.0008ZM26.0004 19.8386C22.597 19.8386 19.8386 22.5978 19.8386 26.0004C19.8386 29.403 22.5978 32.1622 26.0004 32.1622C29.4038 32.1622 32.1622 29.403 32.1622 26.0004C32.1622 26.0004 32.1622 26.0004 32.1622 25.9996C32.1622 22.597 29.4038 19.8378 26.0004 19.8378C26.0004 19.8378 26.0004 19.8378 25.9996 19.8378L26.0004 19.8386ZM26.0004 16.1606C29.2038 16.1606 29.5855 16.1767 30.8507 16.2319C31.6533 16.2415 32.4167 16.3935 33.1233 16.6624L33.0777 16.6472C34.1292 17.0569 34.9455 17.8732 35.3464 18.8975L35.356 18.9247C35.6089 19.5857 35.7593 20.3499 35.7689 21.1477V21.1517C35.8257 22.4177 35.8386 22.7978 35.8386 26.002C35.8386 29.2062 35.8233 29.5871 35.7649 30.8523C35.7497 31.6557 35.5969 32.4191 35.3288 33.1257L35.344 33.0793C35.1375 33.6203 34.8318 34.0812 34.4453 34.4605L34.4445 34.4613C34.066 34.8487 33.6051 35.1543 33.0905 35.3488L33.0649 35.3576C32.4015 35.6105 31.6349 35.7609 30.8339 35.7705H30.8298C29.5559 35.8273 29.1806 35.8402 25.9708 35.8402C22.7594 35.8402 22.3849 35.8249 21.1117 35.7665C20.3051 35.7513 19.5385 35.5985 18.8286 35.3304L18.8759 35.3456C18.3349 35.1423 17.874 34.8358 17.4978 34.4477L17.497 34.4469C17.1057 34.0708 16.7984 33.6091 16.6056 33.0921L16.5976 33.0673C16.3455 32.4047 16.1927 31.6389 16.1775 30.8386V30.8323C16.1326 29.5719 16.1166 29.183 16.1166 25.9884C16.1166 22.7922 16.1326 22.4025 16.1775 21.1269C16.1927 20.3211 16.3447 19.5553 16.6128 18.8463L16.5976 18.8935C16.7952 18.3501 17.1033 17.8876 17.4962 17.5139L17.4978 17.5123C17.8724 17.1185 18.3341 16.812 18.8519 16.6224L18.8767 16.6144C19.5353 16.3599 20.2963 16.2071 21.0917 16.1935H21.0973C22.3721 16.1486 22.7474 16.1334 25.9564 16.1334L26.0004 16.1606ZM26.0004 14C22.7402 14 22.3337 14.0152 21.0533 14.072C20.001 14.0944 19.0031 14.2977 18.0796 14.6506L18.1404 14.6306C17.3082 14.9483 16.5992 15.4196 16.015 16.0134L16.0142 16.0142C15.418 16.5984 14.9475 17.3082 14.6434 18.1004L14.6298 18.1404C14.2969 19.0031 14.0936 20.0018 14.072 21.0437V21.0533C14.012 22.3337 14 22.7402 14 26.0004C14 29.2606 14.0152 29.6671 14.072 30.9475C14.0944 31.9998 14.2977 32.9977 14.6506 33.9212L14.6306 33.8604C15.2676 35.4776 16.5232 36.7332 18.0988 37.3558L18.1404 37.3702C19.0031 37.7023 20.0018 37.9056 21.0437 37.928H21.0533C22.3337 37.988 22.7402 38 26.0004 38C29.2606 38 29.6671 37.9848 30.9475 37.928C31.9998 37.9048 32.9977 37.7023 33.9212 37.3494L33.8604 37.3702C35.4776 36.7332 36.7332 35.4776 37.3558 33.902L37.3702 33.8604C37.7031 32.9977 37.9056 31.999 37.928 30.9571V30.9475C37.988 29.6671 38 29.2606 38 26.0004C38 22.7402 37.9848 22.3337 37.928 21.0533C37.9048 20.001 37.7023 19.0031 37.3494 18.0796L37.3702 18.1404C37.0517 17.3082 36.5812 16.5992 35.9866 16.015L35.9858 16.0142C35.4016 15.418 34.6918 14.9475 33.8996 14.6434L33.8596 14.6298C32.9969 14.2969 31.9982 14.0936 30.9563 14.072H30.9467C29.6663 14.012 29.2598 14 25.9996 14H26.0004Z" fill="#EF174B"/>
</svg>
