<svg width="64" height="56" viewBox="0 0 64 56" fill="none" xmlns="http://www.w3.org/2000/svg">
<path opacity="0.2" d="M61.9991 26.9719C61.9991 45.0008 58.6106 47.9804 48.4151 54M27.1288 26.9722H9.73657C5.1486 26.9722 2 23.5154 2 19.2839V9.68823C2 5.45666 5.1486 2 9.73657 2H19.4223C23.6804 2 27.1588 5.45666 27.1588 9.68823V26.9722M27.1276 26.9719C27.1276 45.0008 23.7392 47.9804 13.5437 54M62 26.9722H44.6077C40.0198 26.9722 36.8711 23.5154 36.8711 19.2839V9.68823C36.8711 5.45666 40.0198 2 44.6077 2H54.2634C58.5215 2 62 5.45666 62 9.68823V26.9722Z" stroke="#24242D" stroke-width="3" stroke-linecap="round" stroke-linejoin="round"/>
</svg>
