<svg width="62" height="62" viewBox="0 0 62 62" fill="none" xmlns="http://www.w3.org/2000/svg">
<path d="M9.67795 11.3437C13.6336 7.05282 18.7919 4.05523 24.4784 2.74281C30.165 1.4304 36.1152 1.86422 41.5512 3.98758C46.9873 6.11093 51.6562 9.82502 54.9477 14.6443C58.2391 19.4636 60 25.1638 60 30.9999C60 35.3296 59.0306 39.6043 57.1628 43.5104C55.295 47.4165 52.5762 50.8548 49.2061 53.573C45.836 56.2911 41.9 58.2202 37.6869 59.2185C33.4739 60.2169 29.0908 60.2592 24.8593 59.3424C20.6278 58.4256 16.6553 56.5729 13.2333 53.9204C9.81128 51.2678 7.02665 47.8827 5.08376 44.0134C3.14086 40.1441 2.08901 35.8889 2.00541 31.56C1.9218 27.2311 2.80856 22.9384 4.6006 18.997M4.871 18.5816L23.4917 27.6852M31 39.1175C35.4832 39.1175 39.1176 35.4831 39.1176 30.9999C39.1176 26.5166 35.4832 22.8822 31 22.8822C26.5168 22.8822 22.8824 26.5166 22.8824 30.9999C22.8824 35.4831 26.5168 39.1175 31 39.1175Z" stroke="white" stroke-width="3" stroke-linecap="round" stroke-linejoin="round"/>
</svg>
