<svg width="325" height="75" viewBox="0 0 325 75" fill="none" xmlns="http://www.w3.org/2000/svg">
<path d="M11.125 26.5H3.25C2.65326 26.5 2.08097 26.7318 1.65901 27.1444C1.23705 27.5569 1 28.1165 1 28.7V46.3C1 46.8835 1.23705 47.4431 1.65901 47.8556C2.08097 48.2682 2.65326 48.5 3.25 48.5H16.75C17.3467 48.5 17.919 48.2682 18.341 47.8556C18.7629 47.4431 19 46.8835 19 46.3V34.2M11.125 26.5L19 34.2M11.125 26.5L11.1255 34.2H19" stroke="white" stroke-width="1.63447" stroke-linecap="round" stroke-linejoin="round"/>
<path d="M43.0445 45V30.3H42.0155L36.1145 38.994L30.2135 30.3H29.1845V45H30.2345V32.232L36.0515 40.695H36.1355L41.9525 32.232V45H43.0445ZM57.4539 39.645V39.603C57.4539 36.6 55.1439 34.038 51.9729 34.038C48.7809 34.038 46.4499 36.642 46.4499 39.645V39.687C46.4499 42.69 48.7599 45.252 51.9309 45.252C55.1229 45.252 57.4539 42.648 57.4539 39.645ZM56.3409 39.687C56.3409 42.207 54.5139 44.286 51.9729 44.286C49.4949 44.286 47.5629 42.228 47.5629 39.645V39.603C47.5629 37.083 49.3899 35.004 51.9309 35.004C54.4089 35.004 56.3409 37.062 56.3409 39.645V39.687ZM65.9306 44.811V43.845C65.3216 44.118 64.8806 44.223 64.3556 44.223C63.1166 44.223 62.2136 43.677 62.2136 42.144V35.235H65.9726V34.29H62.2136V30.867H61.1846V34.29H59.6306V35.235H61.1846V42.249C61.1846 44.286 62.5286 45.189 64.1876 45.189C64.8596 45.189 65.3846 45.063 65.9306 44.811ZM70.3278 31.497V30.09H69.0468V31.497H70.3278ZM70.2018 45V34.29H69.1728V45H70.2018ZM84.5242 39.645V39.603C84.5242 36.6 82.2142 34.038 79.0432 34.038C75.8512 34.038 73.5202 36.642 73.5202 39.645V39.687C73.5202 42.69 75.8302 45.252 79.0012 45.252C82.1932 45.252 84.5242 42.648 84.5242 39.645ZM83.4112 39.687C83.4112 42.207 81.5842 44.286 79.0432 44.286C76.5652 44.286 74.6332 42.228 74.6332 39.645V39.603C74.6332 37.083 76.4602 35.004 79.0012 35.004C81.4792 35.004 83.4112 37.062 83.4112 39.645V39.687ZM96.8649 45V38.448C96.8649 35.886 95.2899 34.038 92.5809 34.038C90.6279 34.038 89.4309 35.025 88.7169 36.285V34.29H87.6879V45H88.7169V38.805C88.7169 36.579 90.3339 34.983 92.4339 34.983C94.5969 34.983 95.8359 36.432 95.8359 38.637V45H96.8649ZM111.361 45V43.992H101.89V38.091H110.311V37.083H101.89V31.308H111.256V30.3H100.798V45H111.361ZM115.811 45V29.67H114.782V45H115.811ZM120.222 40.065H129.105C129.126 39.897 129.126 39.834 129.126 39.687V39.645C129.126 36.474 127.215 34.038 124.212 34.038C121.314 34.038 119.13 36.516 119.13 39.624V39.666C119.13 43.005 121.566 45.252 124.38 45.252C126.438 45.252 127.719 44.412 128.811 43.236L128.097 42.606C127.215 43.551 126.081 44.286 124.422 44.286C122.322 44.286 120.411 42.732 120.222 40.065ZM120.222 39.141C120.411 36.768 122.049 34.983 124.17 34.983C126.627 34.983 127.866 36.978 128.013 39.141H120.222ZM148.319 45V38.511C148.319 35.823 146.744 34.038 144.203 34.038C142.187 34.038 141.032 35.151 140.339 36.348C139.751 35.109 138.596 34.038 136.727 34.038C134.816 34.038 133.85 35.088 133.157 36.201V34.29H132.128V45H133.157V38.826C133.157 36.663 134.669 34.983 136.58 34.983C138.491 34.983 139.709 36.348 139.709 38.574V45H140.738V38.763C140.738 36.369 142.313 34.983 144.119 34.983C146.093 34.983 147.29 36.327 147.29 38.637V45H148.319ZM152.46 40.065H161.343C161.364 39.897 161.364 39.834 161.364 39.687V39.645C161.364 36.474 159.453 34.038 156.45 34.038C153.552 34.038 151.368 36.516 151.368 39.624V39.666C151.368 43.005 153.804 45.252 156.618 45.252C158.676 45.252 159.957 44.412 161.049 43.236L160.335 42.606C159.453 43.551 158.319 44.286 156.66 44.286C154.56 44.286 152.649 42.732 152.46 40.065ZM152.46 39.141C152.649 36.768 154.287 34.983 156.408 34.983C158.865 34.983 160.104 36.978 160.251 39.141H152.46ZM173.544 45V38.448C173.544 35.886 171.969 34.038 169.26 34.038C167.307 34.038 166.11 35.025 165.396 36.285V34.29H164.367V45H165.396V38.805C165.396 36.579 167.013 34.983 169.113 34.983C171.276 34.983 172.515 36.432 172.515 38.637V45H173.544ZM182.558 44.811V43.845C181.949 44.118 181.508 44.223 180.983 44.223C179.744 44.223 178.841 43.677 178.841 42.144V35.235H182.6V34.29H178.841V30.867H177.812V34.29H176.258V35.235H177.812V42.249C177.812 44.286 179.156 45.189 180.815 45.189C181.487 45.189 182.012 45.063 182.558 44.811ZM192.815 42.081V42.039C192.815 40.149 191.009 39.519 189.287 39.036C187.754 38.595 186.305 38.154 186.305 36.957V36.915C186.305 35.844 187.271 35.046 188.741 35.046C189.875 35.046 191.051 35.466 192.038 36.117L192.584 35.256C191.513 34.542 190.064 34.08 188.783 34.08C186.704 34.08 185.255 35.319 185.255 37.041V37.083C185.255 38.994 187.187 39.519 188.93 40.023C190.421 40.443 191.765 40.905 191.765 42.165V42.207C191.765 43.446 190.631 44.244 189.182 44.244C187.817 44.244 186.515 43.74 185.339 42.837L184.73 43.656C185.864 44.58 187.565 45.21 189.119 45.21C191.177 45.21 192.815 43.992 192.815 42.081ZM194.097 47.436V48.36H206.781V47.436H194.097ZM214.459 35.256V34.122C212.338 34.038 210.553 35.424 209.713 37.335V34.29H208.684V45H209.713V40.611C209.713 37.125 211.876 35.256 214.354 35.256H214.459ZM216.916 40.065H225.799C225.82 39.897 225.82 39.834 225.82 39.687V39.645C225.82 36.474 223.909 34.038 220.906 34.038C218.008 34.038 215.824 36.516 215.824 39.624V39.666C215.824 43.005 218.26 45.252 221.074 45.252C223.132 45.252 224.413 44.412 225.505 43.236L224.791 42.606C223.909 43.551 222.775 44.286 221.116 44.286C219.016 44.286 217.105 42.732 216.916 40.065ZM216.916 39.141C217.105 36.768 218.743 34.983 220.864 34.983C223.321 34.983 224.56 36.978 224.707 39.141H216.916ZM237.181 45V38.322C237.181 35.55 235.459 34.122 232.708 34.122C231.238 34.122 230.083 34.5 228.907 35.046L229.285 35.949C230.272 35.445 231.343 35.088 232.645 35.088C234.85 35.088 236.173 36.201 236.173 38.364V38.826C235.144 38.553 234.115 38.364 232.624 38.364C229.852 38.364 227.941 39.624 227.941 41.85V41.892C227.941 44.118 230.083 45.252 232.078 45.252C234.115 45.252 235.438 44.244 236.173 43.215V45H237.181ZM236.194 40.989C236.194 42.942 234.325 44.286 232.141 44.286C230.503 44.286 229.033 43.383 229.033 41.829V41.787C229.033 40.296 230.293 39.288 232.561 39.288C234.094 39.288 235.291 39.54 236.194 39.771V40.989ZM250.835 45V29.67H249.806V36.6C248.924 35.256 247.538 34.038 245.396 34.038C242.813 34.038 240.188 36.159 240.188 39.645V39.687C240.188 43.173 242.813 45.252 245.396 45.252C247.517 45.252 248.882 44.013 249.806 42.606V45H250.835ZM249.869 39.666C249.869 42.396 247.727 44.265 245.501 44.265C243.254 44.265 241.301 42.459 241.301 39.645V39.603C241.301 36.726 243.17 35.025 245.501 35.025C247.727 35.025 249.869 36.873 249.869 39.624V39.666ZM270.936 45V38.511C270.936 35.823 269.361 34.038 266.82 34.038C264.804 34.038 263.649 35.151 262.956 36.348C262.368 35.109 261.213 34.038 259.344 34.038C257.433 34.038 256.467 35.088 255.774 36.201V34.29H254.745V45H255.774V38.826C255.774 36.663 257.286 34.983 259.197 34.983C261.108 34.983 262.326 36.348 262.326 38.574V45H263.355V38.763C263.355 36.369 264.93 34.983 266.736 34.983C268.71 34.983 269.907 36.327 269.907 38.637V45H270.936ZM275.076 40.065H283.959C283.98 39.897 283.98 39.834 283.98 39.687V39.645C283.98 36.474 282.069 34.038 279.066 34.038C276.168 34.038 273.984 36.516 273.984 39.624V39.666C273.984 43.005 276.42 45.252 279.234 45.252C281.292 45.252 282.573 44.412 283.665 43.236L282.951 42.606C282.069 43.551 280.935 44.286 279.276 44.286C277.176 44.286 275.265 42.732 275.076 40.065ZM275.076 39.141C275.265 36.768 276.903 34.983 279.024 34.983C281.481 34.983 282.72 36.978 282.867 39.141H275.076ZM287.933 45V43.215H286.547V45H287.933ZM302.265 39.645V39.603C302.265 36.117 299.64 34.038 297.057 34.038C294.936 34.038 293.571 35.277 292.647 36.684V34.29H291.618V48.36H292.647V42.69C293.529 44.034 294.915 45.252 297.057 45.252C299.64 45.252 302.265 43.131 302.265 39.645ZM301.152 39.687C301.152 42.564 299.283 44.265 296.952 44.265C294.726 44.265 292.584 42.417 292.584 39.666V39.624C292.584 36.894 294.726 35.025 296.952 35.025C299.199 35.025 301.152 36.831 301.152 39.645V39.687ZM315.435 45V29.67H314.406V36.6C313.524 35.256 312.138 34.038 309.996 34.038C307.413 34.038 304.788 36.159 304.788 39.645V39.687C304.788 43.173 307.413 45.252 309.996 45.252C312.117 45.252 313.482 44.013 314.406 42.606V45H315.435ZM314.469 39.666C314.469 42.396 312.327 44.265 310.101 44.265C307.854 44.265 305.901 42.459 305.901 39.645V39.603C305.901 36.726 307.77 35.025 310.101 35.025C312.327 35.025 314.469 36.873 314.469 39.624V39.666ZM324.762 30.825V29.859C324.279 29.691 323.817 29.607 323.166 29.607C321.15 29.607 319.974 30.93 319.974 33.24V34.29H318.42V35.235H319.974V45H321.003V35.235H324.741V34.29H321.003V33.261C321.003 31.434 321.696 30.552 323.166 30.552C323.712 30.552 324.153 30.636 324.762 30.825Z" fill="white"/>
</svg>
