<svg width="24" height="25" viewBox="0 0 24 25" fill="none" xmlns="http://www.w3.org/2000/svg">
<path d="M12 0.937744C5.3835 0.937744 0 6.32125 0 12.9377C0 19.5542 5.3835 24.9377 12 24.9377C18.6165 24.9377 24 19.5542 24 12.9377C24 6.32125 18.6165 0.937744 12 0.937744ZM22.0575 9.93774H17.1877C16.662 9.03099 15.9067 8.27575 15 7.74999V2.88025C18.3802 3.88974 21.048 6.5575 22.0575 9.93774ZM12 17.4377C9.51825 17.4377 7.5 15.4195 7.5 12.9377C7.5 10.456 9.51825 8.43774 12 8.43774C14.4817 8.43774 16.5 10.456 16.5 12.9377C16.5 15.4195 14.4817 17.4377 12 17.4377ZM12 2.43774C12.5107 2.43774 13.0087 2.48649 13.5 2.55774V7.13499C13.0192 7.01125 12.519 6.93774 12 6.93774C11.481 6.93774 10.9808 7.01125 10.5 7.13499V2.55774C10.9913 2.48649 11.4893 2.43774 12 2.43774ZM9 2.88025V7.74999C8.09325 8.27575 7.338 9.03099 6.81225 9.93774H1.9425C2.952 6.5575 5.61975 3.88974 9 2.88025ZM1.5 12.9377C1.5 12.427 1.54875 11.929 1.62 11.4377H6.19725C6.07275 11.9185 6 12.4187 6 12.9377C6 13.4567 6.07275 13.957 6.19725 14.4377H1.62C1.54875 13.9465 1.5 13.4485 1.5 12.9377ZM1.9425 15.9377H6.81225C7.338 16.8445 8.09325 17.5997 9 18.1262V22.9952C5.61975 21.9857 2.952 19.318 1.9425 15.9377ZM12 23.4377C11.4893 23.4377 10.9913 23.389 10.5 23.3177V18.7405C10.9808 18.865 11.481 18.9377 12 18.9377C12.519 18.9377 13.0192 18.865 13.5 18.7405V23.3177C13.0087 23.389 12.5107 23.4377 12 23.4377ZM15 22.9952V18.1262C15.9067 17.5997 16.662 16.8445 17.1885 15.9377H22.0575C21.048 19.318 18.3802 21.9857 15 22.9952ZM17.8027 14.4377C17.9272 13.957 18 13.4567 18 12.9377C18 12.4187 17.9272 11.9185 17.8027 11.4377H22.38C22.4513 11.929 22.5 12.427 22.5 12.9377C22.5 13.4485 22.4513 13.9465 22.38 14.4377H17.8027Z" fill="#5B5D6F"/>
</svg>
