<svg width="20" height="20" viewBox="0 0 20 20" fill="none" xmlns="http://www.w3.org/2000/svg">
<path d="M18.8606 10.822L18.8207 8.8246C19.0741 10.7267 18.7058 12.6598 17.7708 14.3355C16.8357 16.0112 15.3841 17.3398 13.6323 18.123C11.8805 18.9063 9.92249 19.1023 8.0502 18.6819C6.17791 18.2614 4.49169 17.247 3.24303 15.7899C1.99437 14.3328 1.25017 12.5111 1.12142 10.5965C0.992674 8.68195 1.48627 6.77703 2.52861 5.16588C3.57094 3.55473 5.10615 2.32368 6.90529 1.65633C8.70443 0.988979 10.6711 0.921085 12.512 1.46277" stroke="white" stroke-linecap="round" stroke-linejoin="round"/>
<path d="M15.2461 5.62404L18.5127 2.35742" stroke="white" stroke-linecap="round" stroke-linejoin="round"/>
<path d="M15.9023 2.35742H18.5156V4.97072" stroke="white" stroke-linecap="round" stroke-linejoin="round"/>
<path d="M10.5651 11.8988C10.8211 11.8775 11.0158 11.8082 11.1491 11.6908C11.2878 11.5682 11.3571 11.4108 11.3571 11.2188V11.2028C11.3571 11.0268 11.3011 10.8802 11.1891 10.7628C11.0824 10.6455 10.8744 10.5415 10.5651 10.4508V11.8988ZM9.93309 7.92284C9.67709 7.94418 9.48509 8.01618 9.35709 8.13884C9.22909 8.26151 9.16509 8.41084 9.16509 8.58684V8.60284C9.16509 8.76818 9.21576 8.90951 9.31709 9.02684C9.41843 9.13884 9.62376 9.24018 9.93309 9.33084V7.92284ZM9.90109 12.6988C9.54909 12.6562 9.21309 12.5682 8.89309 12.4348C8.57843 12.3015 8.28509 12.1255 8.01309 11.9068L8.52509 11.1788C8.75443 11.3655 8.98109 11.5175 9.20509 11.6348C9.42909 11.7468 9.67176 11.8242 9.93309 11.8668V10.2988C9.34643 10.1495 8.91443 9.95218 8.63709 9.70684C8.35976 9.45618 8.22109 9.10684 8.22109 8.65884V8.64284C8.22109 8.42951 8.26109 8.23484 8.34109 8.05884C8.42109 7.87751 8.53576 7.72018 8.68509 7.58684C8.83443 7.45351 9.01043 7.34684 9.21309 7.26684C9.42109 7.18684 9.65043 7.13618 9.90109 7.11484V6.65084H10.5971V7.13084C10.8904 7.16818 11.1571 7.23751 11.3971 7.33884C11.6424 7.44018 11.8771 7.57351 12.1011 7.73884L11.6531 8.49084C11.3064 8.22951 10.9438 8.05884 10.5651 7.97884V9.49884C11.1731 9.65351 11.6131 9.86151 11.8851 10.1228C12.1624 10.3788 12.3011 10.7202 12.3011 11.1468V11.1628C12.3011 11.3815 12.2584 11.5815 12.1731 11.7628C12.0931 11.9388 11.9784 12.0935 11.8291 12.2268C11.6798 12.3602 11.5011 12.4695 11.2931 12.5548C11.0851 12.6348 10.8531 12.6855 10.5971 12.7068V13.4988H9.90109V12.6988Z" fill="white"/>
</svg>
