<svg width="52" height="52" viewBox="0 0 52 52" fill="none" xmlns="http://www.w3.org/2000/svg">
<circle cx="26" cy="26" r="26" fill="#EF174B"/>
<path fill-rule="evenodd" clip-rule="evenodd" d="M21.548 35C30.6044 35 35.558 28.0739 35.558 22.0684C35.558 21.8712 35.558 21.6755 35.5436 21.4806C36.5072 20.8382 37.3388 20.0405 38 19.1278C37.1024 19.4956 36.1484 19.7367 35.1728 19.8431C36.2 19.2749 36.9692 18.3822 37.3376 17.3288C36.3704 17.8583 35.3132 18.2319 34.2104 18.4324C32.3456 16.6026 29.2268 16.5139 27.2432 18.2352C25.9652 19.345 25.4216 20.9998 25.8188 22.5781C21.86 22.3943 18.1712 20.6686 15.6704 17.8298C14.3636 19.9066 15.032 22.5624 17.1956 23.896C16.412 23.8749 15.6452 23.6802 14.96 23.328V23.3857C14.9612 25.5489 16.6136 27.4115 18.9104 27.8401C18.1856 28.0229 17.4248 28.0494 16.688 27.9176C17.3324 29.7695 19.1816 31.038 21.2876 31.0745C19.544 32.3394 17.39 33.0263 15.1724 33.0241C14.7812 33.023 14.39 33.0019 14 32.9587C16.2524 34.2923 18.872 35 21.548 34.9967" fill="white"/>
</svg>
