<svg width="22" height="19" viewBox="0 0 22 19" fill="none" xmlns="http://www.w3.org/2000/svg">
<path fill-rule="evenodd" clip-rule="evenodd" d="M6.919 18.5C15.2207 18.5 19.7615 11.5739 19.7615 5.56838C19.7615 5.37122 19.7615 5.17554 19.7483 4.9806C20.6316 4.33817 21.3939 3.54053 22 2.62785C21.1772 2.99558 20.3027 3.23674 19.4084 3.34307C20.35 2.77486 21.0551 1.88216 21.3928 0.828814C20.5062 1.35826 19.5371 1.73192 18.5262 1.9324C16.8168 0.102603 13.9579 0.0139481 12.1396 1.7352C10.9681 2.84504 10.4698 4.49979 10.8339 6.07815C7.205 5.89429 3.8236 4.16864 1.5312 1.3298C0.3333 3.40658 0.946 6.0624 2.9293 7.39598C2.211 7.37493 1.5081 7.18019 0.88 6.82798V6.88565C0.8811 9.04885 2.3958 10.9115 4.5012 11.3401C3.8368 11.5229 3.1394 11.5494 2.464 11.4176C3.0547 13.2695 4.7498 14.538 6.6803 14.5745C5.082 15.8394 3.1075 16.5263 1.0747 16.5241C0.7161 16.523 0.3575 16.5019 0 16.4587C2.0647 17.7923 4.466 18.5 6.919 18.4967" fill="#29A8DF"/>
</svg>
