<svg width="186" height="29" viewBox="0 0 186 29" fill="none" xmlns="http://www.w3.org/2000/svg">
<g clip-path="url(#clip0_446_3479)">
<path d="M38.0566 18.025V17.9453C38.0566 11.8971 42.3386 6.93018 48.3813 6.93018C55.1044 6.93018 58.5062 12.2173 58.5062 18.3056C58.5062 18.7461 58.4662 19.187 58.4261 19.6676H42.8988C43.4195 23.1121 45.8606 25.0348 48.9816 25.0348C51.3431 25.0348 53.0237 24.1534 54.7044 22.5113L57.5451 25.0348C55.5426 27.4381 52.783 29.0005 48.9015 29.0005C42.7791 29 38.0566 24.5538 38.0566 18.025ZM53.7036 16.4626C53.3833 13.3397 51.5424 10.8949 48.3413 10.8949C45.3795 10.8949 43.2989 13.1789 42.8588 16.4626H53.7036Z" fill="#2B2B2B"/>
<path d="M0 14.5799V14.4998C0 6.52881 5.96076 0 14.4465 0C19.609 0 22.7305 1.80245 25.4115 4.36606L22.2504 8.01104C20.0091 5.92799 17.608 4.5264 14.4064 4.5264C9.04406 4.5264 5.16258 8.93208 5.16258 14.4196V14.4998C5.16258 19.9873 9.04406 24.4745 14.4064 24.4745C17.8483 24.4745 20.0491 23.0725 22.4502 20.8295L25.6126 24.0331C22.6914 27.0773 19.4898 29 14.2499 29C6.08277 29 0 22.6311 0 14.5799Z" fill="white"/>
<path d="M26.8125 7.37017H31.6556V12.1366C32.9763 8.97219 35.4174 6.80944 39.1392 6.96978V12.097H38.8598C34.6178 12.097 31.6561 14.861 31.6561 20.4688V28.519H26.813L26.8125 7.37017Z" fill="white"/>
<path d="M38.0566 18.025V17.9453C38.0566 11.8971 42.3386 6.93018 48.3813 6.93018C55.1044 6.93018 58.5062 12.2173 58.5062 18.3056C58.5062 18.7461 58.4662 19.187 58.4261 19.6676H42.8988C43.4195 23.1121 45.8606 25.0348 48.9816 25.0348C51.3431 25.0348 53.0237 24.1534 54.7044 22.5113L57.5451 25.0348C55.5426 27.4381 52.783 29.0005 48.9015 29.0005C42.7791 29 38.0566 24.5538 38.0566 18.025ZM53.7036 16.4626C53.3833 13.3397 51.5424 10.8949 48.3413 10.8949C45.3795 10.8949 43.2989 13.1789 42.8588 16.4626H53.7036Z" fill="white"/>
<path d="M72.9132 28.5189V25.9156C71.4729 27.6402 69.2716 28.9598 66.0705 28.9598C62.0684 28.9598 58.5469 26.6759 58.5469 22.4305V22.3504C58.5469 17.6641 62.1885 15.4212 67.1108 15.4212C69.6721 15.4212 71.3127 15.7815 72.9533 16.3021V15.9017C72.9533 12.9778 71.1124 11.3753 67.7511 11.3753C65.3901 11.3753 63.6294 11.8964 61.7084 12.6972L60.3877 8.81217C62.7087 7.77041 64.9896 7.0498 68.4315 7.0498C74.6717 7.0498 77.7158 10.334 77.7158 15.9819V28.5203L72.9132 28.5189ZM73.0334 19.667C71.7928 19.1864 70.0721 18.8256 68.1903 18.8256C65.1489 18.8256 63.3472 20.0673 63.3472 22.1103V22.1905C63.3472 24.1947 65.148 25.3134 67.4289 25.3134C70.6305 25.3134 73.0315 23.511 73.0315 20.8672L73.0334 19.667Z" fill="white"/>
<path d="M80.8763 22.6712V11.5358H78.1953V7.37022H80.8763V1.56201H85.7194V7.37022H91.4007V11.5358H85.7194V21.9101C85.7194 23.7927 86.6801 24.5538 88.3207 24.5538C89.4011 24.5538 90.3618 24.3133 91.322 23.8328V27.7984C90.1215 28.479 88.7608 28.8798 86.96 28.8798C83.3975 28.8798 80.8763 27.3174 80.8763 22.6712Z" fill="white"/>
<path d="M108.807 18.2151C108.871 18.0936 108.903 17.9578 108.9 17.8205C108.897 17.6833 108.858 17.5491 108.789 17.4307C108.803 17.6138 108.809 17.798 108.809 17.9844V18.065C108.809 18.1149 108.809 18.1648 108.807 18.2151Z" fill="#2B2B2B"/>
<path d="M102.404 6.9292C95.9213 6.9292 91.1191 11.9362 91.1191 17.9844V18.065C91.1191 24.0727 95.8812 28.9995 102.324 28.9995C108.847 28.9995 113.649 23.9926 113.649 17.9844V17.9047C113.651 11.856 108.889 6.9292 102.404 6.9292ZM100.328 23.2538C100.207 23.3237 100.069 23.3604 99.9286 23.3602C99.7884 23.36 99.6508 23.3228 99.5295 23.2525C99.4082 23.1822 99.3076 23.0811 99.2377 22.9595C99.1678 22.8379 99.1311 22.7001 99.1312 22.5598V13.1168C99.1311 12.9764 99.168 12.8384 99.2381 12.7168C99.3083 12.5952 99.4092 12.4942 99.5308 12.4241C99.6523 12.3539 99.7902 12.3171 99.9305 12.3173C100.071 12.3175 100.209 12.3546 100.33 12.4251L100.478 12.5099L108.501 17.1459C108.62 17.2142 108.719 17.3123 108.789 17.4307C108.859 17.5491 108.897 17.6833 108.9 17.8205C108.903 17.9578 108.871 18.0936 108.807 18.2151C108.738 18.3481 108.631 18.4581 108.501 18.5321L107.971 18.8383L100.328 23.2538Z" fill="white"/>
<path d="M115.172 7.37017H120.015V12.1366C121.336 8.97219 123.777 6.80944 127.499 6.96978V12.097H127.219C122.977 12.097 120.016 14.861 120.016 20.4688V28.519H115.173L115.172 7.37017Z" fill="white"/>
<path d="M108.807 18.2153C108.737 18.3482 108.631 18.4582 108.5 18.5322L107.97 18.8384L100.33 23.2539C100.208 23.3243 100.07 23.3614 99.9296 23.3614C99.7891 23.3614 99.6512 23.3244 99.5296 23.254C99.408 23.1836 99.3072 23.0824 99.2372 22.9605C99.1671 22.8386 99.1305 22.7004 99.1309 22.5599V13.1169C99.1308 12.9765 99.1676 12.8385 99.2378 12.7169C99.3079 12.5953 99.4088 12.4943 99.5304 12.4242C99.6519 12.354 99.7898 12.3172 99.9301 12.3174C100.07 12.3176 100.208 12.3548 100.33 12.4252L100.477 12.5101L108.5 17.146C108.62 17.2143 108.719 17.3124 108.789 17.4308C108.858 17.5492 108.896 17.6834 108.899 17.8207C108.903 17.9579 108.871 18.0937 108.807 18.2153Z" fill="#101010"/>
<path d="M108.806 18.2152C108.737 18.3481 108.63 18.4582 108.5 18.5322L107.97 18.8384L100.477 12.51L108.5 17.1459C108.619 17.2143 108.718 17.3124 108.788 17.4307C108.858 17.5492 108.896 17.6833 108.899 17.8206C108.902 17.9579 108.87 18.0937 108.806 18.2152Z" fill="#BFBFBF"/>
<path d="M130.174 24.4334L133.135 20.9087C135.817 23.2318 138.498 24.5537 141.979 24.5537C145.021 24.5537 146.942 23.1516 146.942 21.029V20.9488C146.942 18.9445 145.821 17.8645 140.619 16.6629C134.658 15.2207 131.294 13.4584 131.294 8.29108V8.21138C131.294 3.40251 135.296 0.0800781 140.859 0.0800781C144.941 0.0800781 148.182 1.3218 151.023 3.60481L148.382 7.32996C145.861 5.44734 143.34 4.44614 140.779 4.44614C137.898 4.44614 136.215 5.9279 136.215 7.77044V7.85061C136.215 10.0138 137.496 10.9735 142.859 12.2568C148.781 13.6989 151.863 15.8216 151.863 20.4682V20.5479C151.863 25.7954 147.741 28.9197 141.858 28.9197C137.577 28.9197 133.536 27.4375 130.174 24.4334Z" fill="#F41C3B"/>
<path d="M130.174 24.4334L133.135 20.9087C135.817 23.2318 138.498 24.5537 141.979 24.5537C145.021 24.5537 146.942 23.1516 146.942 21.029V20.9488C146.942 18.9445 145.821 17.8645 140.619 16.6629C134.658 15.2207 131.294 13.4584 131.294 8.29108V8.21138C131.294 3.40251 135.296 0.0800781 140.859 0.0800781C144.941 0.0800781 148.182 1.3218 151.023 3.60481L148.382 7.32996C145.861 5.44734 143.34 4.44614 140.779 4.44614C137.898 4.44614 136.215 5.9279 136.215 7.77044V7.85061C136.215 10.0138 137.496 10.9735 142.859 12.2568C148.781 13.6989 151.863 15.8216 151.863 20.4682V20.5479C151.863 25.7954 147.741 28.9197 141.858 28.9197C137.577 28.9197 133.536 27.4375 130.174 24.4334Z" fill="#F41C3B"/>
<path d="M152.545 18.025V17.9453C152.545 11.8971 156.829 6.93018 162.87 6.93018C169.593 6.93018 172.994 12.2173 172.994 18.3056C172.994 18.7461 172.954 19.187 172.914 19.6676H157.387C157.907 23.1121 160.348 25.0348 163.47 25.0348C165.831 25.0348 167.512 24.1534 169.192 22.5113L172.033 25.0348C170.03 27.4381 167.271 29.0005 163.389 29.0005C157.267 29 152.545 24.5538 152.545 18.025ZM168.192 16.4626C167.872 13.3397 166.031 10.8949 162.83 10.8949C159.868 10.8949 157.787 13.1789 157.347 16.4626H168.192Z" fill="#F41C3B"/>
<path d="M175.476 22.6712V11.5358H172.795V7.37022H175.476V1.56201H180.319V7.37022H186V11.5358H180.319V21.9101C180.319 23.7927 181.28 24.5538 182.92 24.5538C184.001 24.5538 184.961 24.3133 185.922 23.8328V27.7984C184.721 28.479 183.36 28.8798 181.56 28.8798C177.997 28.8798 175.476 27.3174 175.476 22.6712Z" fill="#F41C3B"/>
</g>
<defs>
<clipPath id="clip0_446_3479">
<rect width="186" height="29" fill="white"/>
</clipPath>
</defs>
</svg>
