<svg xmlns="http://www.w3.org/2000/svg" viewBox="0 0 2994 2842.07"><defs><style>.cls-1{fill:#2b2b2b;}.cls-2{fill:#f41c3b;}.cls-3{fill:#fff;}</style></defs><title>logoFichier 1</title><g id="Calque_2" data-name="Calque 2"><g id="Layer_1" data-name="Layer 1"><path class="cls-1" d="M2043.33,2179.41l335.23-81.61-93.31,526.37a193.42,193.42,0,0,1-176.81,159.35l-799.54,57.3a486.85,486.85,0,0,1-114.8-5.34L1397.42,1788l200.17,243c84.72,102.85,211.92,160.77,342.39,160.77A435.92,435.92,0,0,0,2043.33,2179.41Z"/><path class="cls-1" d="M204.63,2020l74.06-315.16,56.77,52.55c72.08,66.73,164.63,102.32,259.85,102.32a386.78,386.78,0,0,0,100-13.24l569.77-152.4-212.5,1095a484.44,484.44,0,0,1-71.13-44.1L277.32,2219.53A193.62,193.62,0,0,1,204.63,2020Z"/><polygon class="cls-2" points="2476.01 1182.44 1624.39 1406.53 1423.61 1448.33 1395.63 1454.15 1018.52 1123.24 586.55 744.14 1717.71 529.82 2476.01 1182.44"/><path class="cls-1" d="M255.22,1481.74l-62.34-57.69L75.75,1315.63c-61-56.49-87.52-138.87-70.87-220.34S78.19,948.4,156.48,920.36l168.68-60.44,82.74-29.66,4.25-1.51,59.12,55.35,722.52,676.1L657.11,1703.76A234.72,234.72,0,0,1,435.85,1649"/><path class="cls-1" d="M2612,1299.48l-17.66,4.65-886.11,233.18-251.76,66.26-16,4.22,7.75,9.4,18.86,22.92L1711.66,1937c71.32,86.54,187.8,125.33,296.73,98.8l398.37-97,78.43-19.08,78.45-19.11,6.58-1.59a294.26,294.26,0,0,0,163.29-465.72"/><polygon class="cls-1" points="2703.83 1183.12 2649.51 1136.78 2703.4 1183.17 2722.17 1176.82 2703.83 1183.12"/><path class="cls-1" d="M1649.27,392.36,503.48,609.45l-17.27-28.9L420.74,470.9c-38.94-65.22-43.2-142.25-11.66-211.36S501.6,143.17,576.39,129.85l709.7-126.3A230.65,230.65,0,0,1,1326.27,0a227.45,227.45,0,0,1,207.61,134.69l96.95,216.48Z"/><path class="cls-1" d="M2990.89,962.47c-13.54,82-68.66,146.86-147.42,173.44l-121.3,40.91-18.77,6.35-53.89-46.39-80.16-69-702.6-604.69,44.6-18.24,270.9-110.78a221.89,221.89,0,0,1,218,29l506.85,387.71C2973.12,801.33,3004.46,880.43,2990.89,962.47Z"/><polygon class="cls-3" points="1170.55 864.24 1812.82 871.45 1516.94 1167.33 1170.55 864.24"/></g></g></svg>