<svg xmlns="http://www.w3.org/2000/svg" viewBox="0 0 3994.12 622.17"><defs><style>.cls-1{fill:none;}.cls-2{fill:#2b2b2b;}.cls-3{fill:#fff;}.cls-4{fill:#bfbfbf;}.cls-5{fill:#f41c3b;}</style></defs><title>logoFichier 1</title><g id="Calque_2" data-name="Calque 2"><g id="Layer_1" data-name="Layer 1"><path class="cls-1" d="M0,312.8v-1.72C0,140.07,128,0,310.22,0,421.08,0,488.11,38.67,545.68,93.67l-67.88,78.2c-48.13-44.69-99.69-74.76-168.44-74.76-115.15,0-198.5,94.52-198.5,212.25v1.72c0,117.73,83.35,214,198.5,214,73.91,0,121.17-30.08,172.73-78.2L550,515.61c-62.73,65.31-131.48,106.56-244,106.56C130.62,622.17,0,485.53,0,312.8Z"/><path class="cls-1" d="M575.75,158.12h104V260.38c28.36-67.89,80.78-114.29,160.7-110.85v110h-6c-91.09,0-154.69,59.3-154.69,179.61V611.85h-104Z"/><path class="cls-2" d="M817.23,386.71V385c0-129.76,91.95-236.32,221.71-236.32,144.37,0,217.42,113.43,217.42,244.05,0,9.45-.86,18.91-1.72,29.22H921.21c11.18,73.9,63.6,115.15,130.62,115.15,50.71,0,86.8-18.91,122.89-54.14l61,54.14c-43,51.56-102.26,85.08-185.61,85.08C918.64,622.17,817.23,526.78,817.23,386.71Zm336-33.52c-6.88-67-46.41-119.45-115.15-119.45-63.6,0-108.28,49-117.73,119.45Z"/><path class="cls-1" d="M1565.71,611.85V556c-30.93,37-78.2,65.31-146.94,65.31-85.94,0-161.56-49-161.56-140.08v-1.72c0-100.54,78.2-148.66,183.9-148.66,55,0,90.23,7.73,125.46,18.9v-8.59c0-62.73-39.53-97.11-111.71-97.11-50.7,0-88.51,11.18-129.76,28.36l-28.36-83.35c49.84-22.35,98.82-37.81,172.73-37.81,134,0,199.37,70.46,199.37,191.63v269Zm2.58-189.91c-26.64-10.31-63.59-18.05-104-18.05-65.31,0-104,26.64-104,70.47v1.72c0,43,38.67,67,87.65,67,68.75,0,120.31-38.67,120.31-95.39Z"/><path class="cls-1" d="M1736.72,486.39V247.49h-57.57V158.12h57.57V33.51h104V158.12h122v89.37h-122V470.06c0,40.39,20.63,56.72,55.86,56.72,23.2,0,43.83-5.16,64.45-15.47v85.08c-25.78,14.6-55,23.2-93.67,23.2C1790.86,619.59,1736.72,586.07,1736.72,486.39Z"/><path class="cls-1" d="M2336.5,390.79a17.32,17.32,0,0,0-.39-16.83c.29,3.93.43,7.88.43,11.88v1.73C2336.54,388.64,2336.53,389.71,2336.5,390.79Z"/><path class="cls-1" d="M2473.17,158.12h104V260.38c28.36-67.89,80.78-114.29,160.7-110.85v110h-6c-91.09,0-154.68,59.3-154.68,179.61V611.85h-104Z"/><path class="cls-2" d="M0,312.8v-1.72C0,140.07,128,0,310.22,0,421.08,0,488.11,38.67,545.68,93.67l-67.88,78.2c-48.13-44.69-99.69-74.76-168.44-74.76-115.15,0-198.5,94.52-198.5,212.25v1.72c0,117.73,83.35,214,198.5,214,73.91,0,121.17-30.08,172.73-78.2L550,515.61c-62.73,65.31-131.48,106.56-244,106.56C130.62,622.17,0,485.53,0,312.8Z"/><path class="cls-2" d="M575.75,158.12h104V260.38c28.36-67.89,80.78-114.29,160.7-110.85v110h-6c-91.09,0-154.69,59.3-154.69,179.61V611.85h-104Z"/><path class="cls-2" d="M817.23,386.71V385c0-129.76,91.95-236.32,221.71-236.32,144.37,0,217.42,113.43,217.42,244.05,0,9.45-.86,18.91-1.72,29.22H921.21c11.18,73.9,63.6,115.15,130.62,115.15,50.71,0,86.8-18.91,122.89-54.14l61,54.14c-43,51.56-102.26,85.08-185.61,85.08C918.64,622.17,817.23,526.78,817.23,386.71Zm336-33.52c-6.88-67-46.41-119.45-115.15-119.45-63.6,0-108.28,49-117.73,119.45Z"/><path class="cls-2" d="M1565.71,611.85V556c-30.93,37-78.2,65.31-146.94,65.31-85.94,0-161.56-49-161.56-140.08v-1.72c0-100.54,78.2-148.66,183.9-148.66,55,0,90.23,7.73,125.46,18.9v-8.59c0-62.73-39.53-97.11-111.71-97.11-50.7,0-88.51,11.18-129.76,28.36l-28.36-83.35c49.84-22.35,98.82-37.81,172.73-37.81,134,0,199.37,70.46,199.37,191.63v269Zm2.58-189.91c-26.64-10.31-63.59-18.05-104-18.05-65.31,0-104,26.64-104,70.47v1.72c0,43,38.67,67,87.65,67,68.75,0,120.31-38.67,120.31-95.39Z"/><path class="cls-2" d="M1736.72,486.39V247.49h-57.57V158.12h57.57V33.51h104V158.12h122v89.37h-122V470.06c0,40.39,20.63,56.72,55.86,56.72,23.2,0,43.83-5.16,64.45-15.47v85.08c-25.78,14.6-55,23.2-93.67,23.2C1790.86,619.59,1736.72,586.07,1736.72,486.39Z"/><path class="cls-2" d="M2336.5,390.79a17.32,17.32,0,0,0-.39-16.83c.29,3.93.43,7.88.43,11.88v1.73C2336.54,388.64,2336.53,389.71,2336.5,390.79Z"/><path class="cls-2" d="M2199,148.66c-139.21,0-242.33,107.42-242.33,237.18v1.73c0,128.89,102.26,234.59,240.61,234.59,140.08,0,243.2-107.42,243.2-236.32v-1.71C2440.52,254.36,2338.26,148.66,2199,148.66Zm-44.58,350.23A17.15,17.15,0,0,1,2128.72,484V281.41a17.14,17.14,0,0,1,25.74-14.84l3.17,1.82,172.29,99.46a17,17,0,0,1,6.19,6.11,17.32,17.32,0,0,1,.39,16.83,16.76,16.76,0,0,1-6.58,6.8l-11.38,6.57Z"/><path class="cls-2" d="M2473.17,158.12h104V260.38c28.36-67.89,80.78-114.29,160.7-110.85v110h-6c-91.09,0-154.68,59.3-154.68,179.61V611.85h-104Z"/><path class="cls-3" d="M2336.5,390.79a16.76,16.76,0,0,1-6.58,6.8l-11.38,6.57-164.08,94.73A17.15,17.15,0,0,1,2128.72,484V281.41a17.14,17.14,0,0,1,25.74-14.84l3.17,1.82,172.29,99.46a17,17,0,0,1,6.19,6.11A17.32,17.32,0,0,1,2336.5,390.79Z"/><path class="cls-4" d="M2336.5,390.79a16.76,16.76,0,0,1-6.58,6.8l-11.38,6.57L2157.63,268.39l172.29,99.46a17,17,0,0,1,6.19,6.11A17.32,17.32,0,0,1,2336.5,390.79Z"/><path class="cls-5" d="M2795.34,524.2l63.59-75.62c57.58,49.84,115.16,78.2,189.92,78.2,65.31,0,106.56-30.08,106.56-75.62v-1.72c0-43-24.06-66.17-135.78-91.95-128-30.94-200.23-68.75-200.23-179.61v-1.71C2819.4,73,2905.34,1.72,3024.79,1.72c87.65,0,157.26,26.64,218.27,75.62l-56.72,79.92c-54.13-40.39-108.27-61.87-163.27-61.87-61.87,0-98,31.79-98,71.32v1.72c0,46.41,27.5,67,142.66,94.53,127.18,30.94,193.35,76.48,193.35,176.17v1.71c0,112.58-88.51,179.61-214.84,179.61C2954.32,620.45,2867.53,588.65,2795.34,524.2Z"/><path class="cls-1" d="M3275.72,386.71V385c0-129.76,92-236.32,221.71-236.32,144.37,0,217.41,113.43,217.41,244.05,0,9.45-.86,18.91-1.72,29.22H3379.7c11.17,73.9,63.59,115.15,130.62,115.15,50.7,0,86.79-18.91,122.88-54.14l61,54.14c-43,51.56-102.26,85.08-185.62,85.08C3377.12,622.17,3275.72,526.78,3275.72,386.71Zm336-33.52c-6.87-67-46.4-119.45-115.15-119.45-63.59,0-108.28,49-117.73,119.45Z"/><path class="cls-1" d="M3768.11,486.39V247.49h-57.57V158.12h57.57V33.51h104V158.12h122v89.37h-122V470.06c0,40.39,20.63,56.72,55.86,56.72,23.2,0,43.83-5.16,64.45-15.47v85.08c-25.78,14.6-55,23.2-93.67,23.2C3822.25,619.59,3768.11,586.07,3768.11,486.39Z"/><path class="cls-5" d="M2795.34,524.2l63.59-75.62c57.58,49.84,115.16,78.2,189.92,78.2,65.31,0,106.56-30.08,106.56-75.62v-1.72c0-43-24.06-66.17-135.78-91.95-128-30.94-200.23-68.75-200.23-179.61v-1.71C2819.4,73,2905.34,1.72,3024.79,1.72c87.65,0,157.26,26.64,218.27,75.62l-56.72,79.92c-54.13-40.39-108.27-61.87-163.27-61.87-61.87,0-98,31.79-98,71.32v1.72c0,46.41,27.5,67,142.66,94.53,127.18,30.94,193.35,76.48,193.35,176.17v1.71c0,112.58-88.51,179.61-214.84,179.61C2954.32,620.45,2867.53,588.65,2795.34,524.2Z"/><path class="cls-5" d="M3275.72,386.71V385c0-129.76,92-236.32,221.71-236.32,144.37,0,217.41,113.43,217.41,244.05,0,9.45-.86,18.91-1.72,29.22H3379.7c11.17,73.9,63.59,115.15,130.62,115.15,50.7,0,86.79-18.91,122.88-54.14l61,54.14c-43,51.56-102.26,85.08-185.62,85.08C3377.12,622.17,3275.72,526.78,3275.72,386.71Zm336-33.52c-6.87-67-46.4-119.45-115.15-119.45-63.59,0-108.28,49-117.73,119.45Z"/><path class="cls-5" d="M3768.11,486.39V247.49h-57.57V158.12h57.57V33.51h104V158.12h122v89.37h-122V470.06c0,40.39,20.63,56.72,55.86,56.72,23.2,0,43.83-5.16,64.45-15.47v85.08c-25.78,14.6-55,23.2-93.67,23.2C3822.25,619.59,3768.11,586.07,3768.11,486.39Z"/></g></g></svg>