<svg width="73" height="62" viewBox="0 0 73 62" fill="none" xmlns="http://www.w3.org/2000/svg">
<path d="M26.8143 61.0644C27.6878 61.0644 28.5255 60.711 29.1431 60.082C29.7607 59.453 30.1077 58.5999 30.1077 57.7104L30.1077 54.3564C30.1077 52.5773 30.8017 50.8711 32.037 49.6131C33.2722 48.3552 34.9476 47.6484 36.6945 47.6484C38.4415 47.6484 40.1169 48.3552 41.3521 49.6131C42.5874 50.8711 43.2814 52.5773 43.2814 54.3564L43.2814 56.9725C43.2826 57.5117 43.3883 58.0454 43.5924 58.543C43.7964 59.0406 44.0948 59.4924 44.4704 59.8724C44.846 60.2525 45.2916 60.5534 45.7815 60.7579C46.2714 60.9624 46.7962 61.0666 47.3257 61.0644C53.8539 61.1369 60.1581 58.6426 64.9259 54.1007C69.6937 49.5588 72.5578 43.3192 72.922 36.6809C73.0235 33.3132 72.4596 29.959 71.2638 26.8175C70.068 23.6759 68.2646 20.8111 65.9608 18.3929C63.6569 15.9747 60.8995 14.0525 57.8523 12.7404C54.805 11.4283 51.5299 10.753 48.2215 10.7546L39.9879 10.7546L39.9879 4.04661C39.9879 3.15708 39.641 2.30398 39.0233 1.67499C38.4057 1.04599 37.568 0.692627 36.6945 0.692627C35.8211 0.692627 34.9834 1.04599 34.3657 1.67499C33.7481 2.30398 33.4011 3.15708 33.4011 4.04661L33.4011 10.7546L26.0634 10.7546C19.5352 10.6821 13.231 13.1764 8.46319 17.7183C3.69536 22.2602 0.831244 28.4997 0.467048 35.1381C0.355527 38.5073 0.914886 41.8647 2.11143 45.0079C3.30797 48.1511 5.11692 51.0151 7.42931 53.4273C9.96094 56.0037 12.9927 58.0137 16.3306 59.3287C19.6685 60.6438 23.2392 61.2349 26.8143 61.0644ZM26.0634 17.4626L48.2215 17.4626C50.6481 17.4614 53.0501 17.9567 55.2851 18.9192C57.5201 19.8817 59.5424 21.2917 61.2319 23.0655C62.9214 24.8393 64.2438 26.9408 65.1205 29.2451C65.9971 31.5494 66.4102 34.0096 66.3352 36.4797C66.0803 40.9342 64.2881 45.1538 61.2751 48.3935C58.2621 51.6331 54.222 53.6845 49.8682 54.1853C49.8619 52.4235 49.5149 50.6802 48.8471 49.055C48.1793 47.4297 47.2037 45.9544 45.9759 44.7131C44.7482 43.4718 43.2924 42.489 41.6918 41.8207C40.0911 41.1523 38.3768 40.8116 36.6468 40.818C33.1529 40.8309 29.8072 42.2568 27.3456 44.7819C26.1268 46.0322 25.1617 47.5147 24.5054 49.1449C23.8492 50.775 23.5146 52.5208 23.5209 54.2826C18.9224 53.8574 14.6569 51.6597 11.5962 48.1388C8.53548 44.6178 6.91069 40.0394 7.05386 35.3393C7.35331 30.4403 9.49665 25.8478 13.0376 22.5178C16.5786 19.1878 21.2444 17.3771 26.0634 17.4626ZM13.6407 32.5555C13.6407 31.666 13.9877 30.8129 14.6053 30.1839C15.2229 29.5549 16.0606 29.2015 16.9341 29.2015L20.2275 29.2015L20.2275 25.8475C20.2275 24.958 20.5745 24.1049 21.1921 23.4759C21.8097 22.8469 22.6474 22.4935 23.5209 22.4935C24.3944 22.4935 25.2321 22.8469 25.8497 23.4759C26.4673 24.1049 26.8143 24.958 26.8143 25.8475L26.8143 29.2015L30.1077 29.2015C30.9812 29.2015 31.8189 29.5549 32.4365 30.1839C33.0541 30.8129 33.4011 31.666 33.4011 32.5555C33.4011 33.445 33.0541 34.2981 32.4365 34.9271C31.8189 35.5561 30.9812 35.9095 30.1077 35.9095L26.8143 35.9095L26.8143 39.2635C26.8143 40.153 26.4673 41.0061 25.8497 41.6351C25.2321 42.2641 24.3944 42.6174 23.5209 42.6174C22.6474 42.6174 21.8097 42.2641 21.1921 41.6351C20.5745 41.0061 20.2275 40.153 20.2275 39.2635L20.2275 35.9095L16.9341 35.9095C16.0606 35.9095 15.2229 35.5561 14.6053 34.9271C13.9877 34.2981 13.6407 33.445 13.6407 32.5555ZM53.1616 27.5245C53.1616 26.8612 53.3547 26.2127 53.7166 25.6611C54.0785 25.1096 54.5929 24.6797 55.1947 24.4258C55.7964 24.172 56.4586 24.1056 57.0975 24.235C57.7364 24.3644 58.3232 24.6838 58.7838 25.1529C59.2444 25.622 59.558 26.2196 59.6851 26.8702C59.8122 27.5208 59.747 28.1952 59.4977 28.808C59.2484 29.4209 58.8263 29.9447 58.2847 30.3133C57.7431 30.6818 57.1064 30.8785 56.455 30.8785C55.5815 30.8785 54.7438 30.5251 54.1262 29.8961C53.5086 29.2671 53.1616 28.414 53.1616 27.5245ZM46.5748 37.5865C46.5748 36.9231 46.7679 36.2747 47.1298 35.7231C47.4917 35.1715 48.006 34.7416 48.6078 34.4878C49.2096 34.2339 49.8718 34.1675 50.5107 34.2969C51.1495 34.4263 51.7364 34.7458 52.197 35.2148C52.6576 35.6839 52.9712 36.2815 53.0983 36.9321C53.2254 37.5827 53.1602 38.2571 52.9109 38.87C52.6616 39.4828 52.2395 40.0067 51.6979 40.3752C51.1563 40.7437 50.5195 40.9405 49.8682 40.9405C48.9947 40.9405 48.157 40.5871 47.5394 39.9581C46.9217 39.3291 46.5748 38.476 46.5748 37.5865Z" fill="white"/>
</svg>
