<svg width="72" height="52" viewBox="0 0 72 52" fill="none" xmlns="http://www.w3.org/2000/svg">
<path d="M60.6907 40.7445H10.8445M60.6907 40.7445C62.6572 40.7445 64.2512 39.1821 64.2512 37.2547V5.84649C64.2512 3.91914 62.6572 2.35669 60.6907 2.35669H50.0094M60.6907 40.7445H65.1413C67.5994 40.7445 69.5918 42.6974 69.5918 45.1068C69.5918 47.5161 67.5994 49.469 65.1413 49.469H35.7676M10.8445 40.7445C8.87811 40.7445 7.28403 39.1821 7.28403 37.2547V5.84649C7.28403 3.91911 8.87811 2.35669 10.8445 2.35669H35.7676M10.8445 40.7445H6.39392C3.93593 40.7445 1.94336 42.6974 1.94336 45.1068C1.94336 47.5161 3.93593 49.469 6.39392 49.469H17.9654" stroke="white" stroke-width="3.62403" stroke-linecap="round" stroke-linejoin="round"/>
</svg>
