<svg width="63" height="62" viewBox="0 0 63 62" fill="none" xmlns="http://www.w3.org/2000/svg">
<path d="M51.7829 14.4718V14.4739C51.7829 16.5158 50.1272 18.1694 48.0874 18.1694C46.0475 18.1694 44.3918 16.5137 44.3918 14.4739C44.3918 12.432 46.0475 10.7783 48.0874 10.7783C50.1272 10.7804 51.7809 12.432 51.7829 14.4718ZM31.6412 41.183C25.9695 41.183 21.3721 36.5856 21.3721 30.9139C21.3721 25.2422 25.9695 20.6448 31.6412 20.6448C37.3129 20.6448 41.9103 25.2422 41.9103 30.9139C41.9103 36.5836 37.315 41.1809 31.6453 41.1809H31.6432L31.6412 41.183ZM31.6412 15.0963C22.9045 15.0963 15.8236 22.1793 15.8236 30.9139C15.8236 39.6485 22.9066 46.7315 31.6412 46.7315C40.3778 46.7315 47.4588 39.6485 47.4588 30.9139C47.4588 30.9139 47.4588 30.9139 47.4588 30.9118C47.4588 22.1772 40.3778 15.0943 31.6412 15.0943C31.6412 15.0943 31.6412 15.0943 31.6391 15.0943L31.6412 15.0963ZM31.6412 5.65507C39.8643 5.65507 40.8441 5.69615 44.0919 5.83789C46.1523 5.86254 48.112 6.25285 49.9259 6.94307L49.8088 6.90404C52.5081 7.9558 54.6034 10.0511 55.6325 12.6805L55.6572 12.7504C56.3063 14.4472 56.6925 16.409 56.7172 18.457V18.4673C56.863 21.7171 56.8959 22.6929 56.8959 30.918C56.8959 39.1431 56.8569 40.121 56.7069 43.3687C56.6679 45.4311 56.2755 47.3909 55.5874 49.2048L55.6264 49.0856C55.0964 50.4743 54.3117 51.6575 53.3195 52.6312L53.3174 52.6333C52.3458 53.6275 51.1625 54.4122 49.8417 54.9114L49.7759 54.934C48.073 55.5832 46.105 55.9693 44.0487 55.994H44.0385C40.7681 56.1399 39.8047 56.1727 31.5652 56.1727C23.3216 56.1727 22.3602 56.1337 19.0919 55.9837C17.0212 55.9447 15.0533 55.5523 13.2312 54.8642L13.3524 54.9032C11.9637 54.3814 10.7805 53.5947 9.81498 52.5984L9.81293 52.5963C8.80841 51.6308 8.01958 50.4455 7.52451 49.1185L7.50397 49.0548C6.85689 47.3539 6.46453 45.388 6.4255 43.3338V43.3173C6.31046 40.0819 6.26938 39.0836 6.26938 30.8831C6.26938 22.6785 6.31046 21.6781 6.4255 18.4036C6.46453 16.335 6.85483 14.3691 7.543 12.5491L7.50397 12.6703C8.01137 11.2754 8.80225 10.0881 9.81087 9.12877L9.81498 9.12466C10.7764 8.11398 11.9617 7.32721 13.2907 6.84036L13.3544 6.81982C15.0451 6.16657 16.9986 5.77421 19.0405 5.73929H19.0549C22.3273 5.62425 23.2907 5.58522 31.5282 5.58522L31.6412 5.65507ZM31.6412 0.108643C23.2722 0.108643 22.2287 0.147673 18.9419 0.293523C16.2406 0.351042 13.679 0.872817 11.3084 1.77873L11.4645 1.72738C9.32813 2.54291 7.50808 3.75285 6.00849 5.27709L6.00644 5.27914C4.47603 6.77873 3.26815 8.60083 2.48754 10.6345L2.45262 10.7372C1.59806 12.9517 1.07628 15.5154 1.02082 18.19V18.2146C0.866751 21.5014 0.835938 22.545 0.835938 30.9139C0.835938 39.2828 0.874968 40.3264 1.02082 43.6131C1.07834 46.3145 1.60011 48.8761 2.50603 51.2467L2.45467 51.0905C4.08984 55.2421 7.31293 58.4652 11.3577 60.0634L11.4645 60.1004C13.679 60.9529 16.2427 61.4747 18.9173 61.5322H18.9419C22.2287 61.6863 23.2722 61.7171 31.6412 61.7171C40.0101 61.7171 41.0537 61.6781 44.3404 61.5322C47.0418 61.4726 49.6034 60.9529 51.974 60.047L51.8178 60.1004C55.9694 58.4652 59.1925 55.2421 60.7907 51.1974L60.8277 51.0905C61.6823 48.8761 62.202 46.3124 62.2595 43.6378V43.6131C62.4136 40.3264 62.4444 39.2828 62.4444 30.9139C62.4444 22.545 62.4054 21.5014 62.2595 18.2146C62.1999 15.5133 61.6802 12.9517 60.7743 10.5811L60.8277 10.7372C60.0101 8.60083 58.8022 6.78079 57.2759 5.2812L57.2739 5.27914C55.7743 3.74874 53.9522 2.54085 51.9185 1.76024L51.8158 1.72532C49.6013 0.870762 47.0377 0.348988 44.363 0.293523H44.3384C41.0516 0.139456 40.0081 0.108643 31.6391 0.108643H31.6412Z" fill="white"/>
</svg>
