<svg width="55" height="61" viewBox="0 0 55 61" fill="none" xmlns="http://www.w3.org/2000/svg">
<path d="M43.6935 9.5746C41.4067 7.03639 40.032 3.72678 40.032 0.108643L37.1662 0.108643C37.9042 4.06336 40.3358 7.45714 43.6935 9.5746Z" fill="white"/>
<path d="M17.1788 30.0214C12.2146 30.0214 8.17664 33.9341 8.17664 38.7441C8.17664 42.096 10.145 45.0127 13.0106 46.4711C11.9396 45.0408 11.3028 43.288 11.3028 41.3806C11.3028 36.5706 15.3407 32.6578 20.305 32.6578C21.2313 32.6578 22.1285 32.8119 22.9681 33.0643L22.9681 22.4626C22.0995 22.3503 21.2168 22.2801 20.305 22.2801C20.1458 22.2801 20.001 22.2941 19.8418 22.2941L19.8418 30.4278C18.9879 30.1754 18.105 30.0214 17.1788 30.0214Z" fill="white"/>
<path d="M51.8123 14.2305L51.8123 22.2941C46.2548 22.2941 41.1025 20.5693 36.9051 17.6523L36.9051 38.758C36.9051 49.29 28.0623 57.8726 17.1786 57.8726C12.9814 57.8726 9.07374 56.5824 5.8752 54.4086C9.47895 58.1529 14.6168 60.5091 20.3048 60.5091C31.1739 60.5091 40.0313 51.9404 40.0313 41.3945L40.0313 20.2888C44.2285 23.2058 49.3807 24.9305 54.9385 24.9305L54.9385 14.5532C53.853 14.5532 52.8108 14.4409 51.8123 14.2305Z" fill="white"/>
<path d="M36.9051 38.758L36.9051 17.6523C41.1025 20.5693 46.2548 22.2941 51.8123 22.2941L51.8123 14.2305C48.5993 13.5715 45.7775 11.8886 43.6935 9.5746C40.3358 7.45714 37.9183 4.06336 37.1512 0.108643L29.3069 0.108644L29.2923 41.717C29.1188 46.373 25.1532 50.1175 20.3048 50.1175C17.2943 50.1175 14.6458 48.673 12.9959 46.4853C10.1302 45.0127 8.16195 42.1099 8.16195 38.758C8.16194 33.948 12.1999 30.0352 17.1641 30.0352C18.0903 30.0352 18.9877 30.1896 19.8271 30.442L19.8271 22.3082C9.17505 22.5326 0.578124 31.0029 0.578125 41.3945C0.578125 46.4149 2.58987 50.9869 5.8752 54.4086C9.07374 56.5824 12.9814 57.8726 17.1786 57.8726C28.0476 57.8726 36.9051 49.29 36.9051 38.758Z" fill="white"/>
</svg>
