<svg width="58" height="62" viewBox="0 0 58 62" fill="none" xmlns="http://www.w3.org/2000/svg">
<path d="M44.7288 45.206L44.7288 43.2262C44.7288 42.3888 45.6483 41.5543 46.5677 41.5543L46.8855 41.5543C47.8173 41.5543 48.746 42.3888 48.746 43.2262L48.746 45.206L44.7288 45.206ZM34.2233 40.9942C33.3038 40.9942 32.3721 41.5543 32.3721 42.3888L32.3721 51.9241C32.3721 52.7587 33.0046 53.3243 34.2233 53.3243C35.1519 53.3243 36.0806 52.7587 36.0806 51.9241L36.0806 42.1228C36.0745 41.5543 35.1519 40.9942 34.2233 40.9942ZM57.0733 35.6735L57.0733 53.8676C57.0733 58.3594 52.7476 61.7171 47.808 61.7171L9.54672 61.7171C4.61017 61.7171 0.29687 58.0766 0.29687 53.8676L0.296872 35.6735C0.296872 31.1957 4.3109 27.8268 9.54672 27.8268L47.5056 27.8268C52.7476 27.8268 57.0733 31.1985 57.0733 35.6735ZM12.3297 55.8475L12.3297 36.7797L16.9608 36.7797L16.9608 34.0017L4.3109 34.0017L4.3109 36.7797L8.31875 36.7797L8.31875 56.0995L12.3297 55.8475ZM26.2168 39.6053L22.5051 39.6053L22.5051 52.1846C22.5051 52.7559 21.8973 53.0275 21.2803 53.0275C20.9686 53.0275 20.3485 52.7559 20.3485 51.9213L20.3485 39.3028L16.3376 39.3028L16.3376 52.7559C16.3376 53.5904 16.3375 54.7049 17.2662 55.2734C19.1236 56.388 22.5051 55.0046 23.1315 53.3215L23.1315 55.5478L26.2168 55.5478L26.2168 39.6053ZM38.8605 51.0812L38.8605 42.6745C38.8605 39.3056 36.0806 37.3565 32.696 40.1485L32.696 33.7104L28.6789 33.7104L28.6789 55.5506L31.7673 55.5506L32.0882 54.1644C36.4077 57.7909 38.8605 55.2762 38.8605 51.0812ZM51.1926 49.9555L48.1381 49.9555L48.1381 51.9241C48.1381 52.7587 47.5056 53.3243 46.5677 53.3243L45.9568 53.3243C45.025 53.3243 44.4326 52.7587 44.4326 51.9241L44.4326 48.0008L51.1926 48.0008L51.1926 41.2911C50.5972 38.1995 45.9568 37.6254 43.504 39.314C42.8776 39.8797 42.2451 40.4482 41.9613 41.2911C41.6435 42.1312 41.3226 43.2262 41.3226 44.9148L41.3226 49.9555C41.3226 58.6255 52.1213 57.5305 51.1926 49.9555ZM36.0745 22.5089C36.4046 23.0774 36.6946 23.349 37.0093 23.6263C37.3302 23.9175 37.938 23.9175 38.5551 23.9175C39.1845 23.9175 39.4745 23.6263 40.1101 23.349C40.4094 23.0774 41.0357 22.5089 41.3319 21.9544L41.3319 23.349L45.6544 23.349L45.6544 6.55233L42.2482 6.55233L42.2482 19.7085C42.2482 20.5514 41.6558 21.1143 40.7241 21.1143C39.7954 21.1143 39.1876 20.5514 39.1876 19.7085L39.1876 6.82957L35.4913 6.82957L35.4913 21.1143C35.7783 21.666 35.7783 21.9544 36.0745 22.5089ZM22.8168 12.996C22.8168 11.3158 22.8168 10.1956 23.1346 9.07267C23.4338 8.23256 24.0632 7.39524 24.6741 6.83797C25.575 6.26362 26.6559 5.96804 27.7564 5.99505C28.682 5.99505 29.6014 6.26949 30.2339 6.55513C30.8417 6.83797 31.4557 7.39524 31.7704 7.94972C32.0913 8.5182 32.3721 9.07267 32.6991 9.63835C32.6991 10.1956 33.0138 11.0385 33.0138 12.4331L33.0138 16.9109C33.0138 18.5968 33.0138 19.7085 32.6991 20.277C32.6991 21.1143 32.3782 21.666 31.7704 22.2317C31.4179 22.8218 30.8841 23.3063 30.2339 23.6263C29.4651 23.9804 28.6183 24.1728 27.7564 24.1891C26.837 24.1891 25.9083 24.1891 25.2881 23.9119C24.6741 23.6235 24.0632 23.3434 23.7455 22.7946C23.3842 22.1601 23.0759 21.5021 22.8229 20.8259C22.5082 19.9886 22.5082 18.8656 22.5082 17.4738L22.8168 12.996ZM26.2168 19.7085C26.2168 20.5514 27.1455 21.3972 28.0711 21.3972C28.9998 21.3972 29.91 20.5514 29.91 19.7085L29.91 10.7445C29.91 9.90159 28.9998 9.06707 28.0711 9.06707C27.1455 9.06707 26.2168 9.90159 26.2168 10.7445L26.2168 19.7085ZM14.184 24.1919L18.1949 24.1919L18.1949 11.313L23.1315 0.108645L18.4942 0.108644L16.0352 8.5126L13.2553 0.108644L8.93891 0.108643L14.184 11.313L14.184 24.1919Z" fill="white"/>
</svg>
